<?xml version="1.0" encoding="UTF-8" standalone="no"?>
<svg
   xmlns:dc="http://purl.org/dc/elements/1.1/"
   xmlns:cc="http://creativecommons.org/ns#"
   xmlns:rdf="http://www.w3.org/1999/02/22-rdf-syntax-ns#"
   xmlns:svg="http://www.w3.org/2000/svg"
   xmlns="http://www.w3.org/2000/svg"
   viewBox="0 0 853.33331 853.33331"
   height="853.33331"
   width="853.33331"
   xml:space="preserve"
   id="svg2"
   version="1.1"><metadata
     id="metadata8"><rdf:RDF><cc:Work
         rdf:about=""><dc:format>image/svg+xml</dc:format><dc:type
           rdf:resource="http://purl.org/dc/dcmitype/StillImage" /></cc:Work></rdf:RDF></metadata><defs
     id="defs6" /><g
     transform="matrix(1.3333333,0,0,-1.3333333,0,853.33333)"
     id="g10"><g
       transform="scale(0.1)"
       id="g12"><path
         id="path14"
         style="fill:#1b5065;fill-opacity:1;fill-rule:nonzero;stroke:none"
         d="m 3786.31,4154.78 572.15,-42.07 c -10.94,118.33 -94.83,245.97 -405.57,245.97 -56.01,0 -99.16,-4.85 -111.85,-6.48 l -245.65,-115.57 z m 608.49,-99.77 -630.62,47.07 -303.99,132.25 367.06,170.36 c 2.11,0.31 44.39,7.53 115.23,7.53 296.91,0 452.32,-116.62 452.32,-328.41 v -28.8" /><path
         id="path16"
         style="fill:#1b5065;fill-opacity:1;fill-rule:nonzero;stroke:none"
         d="m 4361.76,4073.96 c -2.6,4.5 -72.62,110.24 -832.52,134.75 l 1.72,53.54 c 789.25,-25.46 874.45,-138.74 881.74,-172.83 l -52.33,-11.23 c 0.61,-2.82 1.39,-4.21 1.39,-4.23" /><path
         id="path18"
         style="fill:#1b5065;fill-opacity:1;fill-rule:nonzero;stroke:none"
         d="m 3222.32,4303.9 c -46.83,0 -84.76,40.09 -84.76,89.57 0,49.48 37.93,89.57 84.76,89.57 46.78,0 84.73,-40.09 84.73,-89.57 0,-49.48 -37.95,-89.57 -84.73,-89.57 z m 361.31,-728.6 c -178.43,240.87 -160.58,401.46 -53.53,419.31 107.05,17.85 249.78,133.82 249.78,133.82 l -249.78,107.05 303.3,142.73 C 3414.1,4895.62 2896.68,4762.6 2896.68,4762.6 2174.06,4647.38 2423.85,3789.41 2423.85,3789.41 2513.07,3486.1 2290.04,3432.57 2290.04,3432.57 1933.16,3325.52 1620.96,3075.7 1620.96,3075.7 1879.65,1559.1 3333.81,1622.76 3333.81,1622.76 4163.5,2623.13 3762.03,3334.43 3583.63,3575.3" /><path
         id="path20"
         style="fill:#1b5065;fill-opacity:1;fill-rule:nonzero;stroke:none"
         d="m 3850.41,3883.43 c -3.12,0 -5.98,0.52 -8.59,1.28 -25.84,7.62 -25.08,46.53 -24.93,50.87 3.32,207.13 138.99,575.72 213.48,575.72 0.35,0 0.68,0 1,0 33.14,0 37.09,-51.97 38.4,-68.97 2.48,-19.55 4.8,-40.74 6.58,-62.02 l -26.66,-2.41 c -1.78,20.92 -4.05,45.54 -6.53,65.36 -3.14,40.5 -11.87,48.04 -11.87,48.04 h -0.08 c -42.79,0 -184.02,-333.09 -187.56,-553.1 -0.39,-11.18 2.99,-25 5.76,-25.81 1.22,-0.29 34.71,-7.96 161.7,206.05 l 22.99,-14.2 c -110.31,-185.91 -157.3,-220.79 -183.69,-220.81" /><path
         id="path22"
         style="fill:#1b5065;fill-opacity:1;fill-rule:nonzero;stroke:none"
         d="M 3931.82,3976.21 3924,3983 c -136.34,118.61 -136.62,295 -95.43,410 37.15,103.66 109.61,172 184.63,174.1 55.06,1.36 138.58,-31.66 209.46,-199.27 3.3,-7.79 6.23,-16.51 8.65,-25.88 l -25.88,-6.78 c -2.15,8.14 -4.61,15.62 -7.42,22.2 -50.69,119.92 -116.33,185.11 -184.05,182.96 -63.92,-1.78 -126.81,-63.14 -160.19,-156.35 -37.5,-104.72 -38.34,-263.89 79.73,-373.54 32.81,27.63 63.71,82.28 77.52,106.69 l 23.3,-13.17 c -24.71,-43.68 -57.72,-96.99 -93.97,-121.9 l -8.53,-5.85" /><path
         id="path24"
         style="fill:#1b5065;fill-opacity:1;fill-rule:nonzero;stroke:none"
         d="m 4005,3950.02 c -32.83,0 -61.76,12.38 -84.82,36.7 -77.68,81.95 -71.27,277.74 -46.04,359.74 31.41,94.21 182.38,287.56 325.24,309.03 58.14,8.79 108.16,-13.46 144.51,-64.35 49.49,-77.78 12.42,-154.94 -20.3,-223 -12.44,-25.86 -24.2,-50.36 -31.32,-74.09 l -25.63,7.68 c 7.72,25.75 20.49,52.33 32.83,78.03 32.6,67.77 63.36,131.76 22.21,196.43 -30.1,42.13 -69.92,60.06 -118.34,52.85 -127.93,-19.24 -273.52,-200.13 -303.73,-290.77 -26.84,-87.26 -24.67,-264.94 40.02,-333.16 24.88,-26.24 56.19,-34.18 95.7,-24.3 75.98,16 118.89,75.85 141.62,123.28 l 24.14,-11.55 c -25.31,-52.87 -73.59,-119.68 -159.76,-137.82 -12.52,-3.13 -24.69,-4.7 -36.33,-4.7" /><path
         id="path26"
         style="fill:#1b5065;fill-opacity:1;fill-rule:nonzero;stroke:none"
         d="m 4283.93,3411.3 h -26.76 c 0,40 -2.09,78.64 -4.3,123.78 -2.3,46.71 -4.65,91.39 -4.65,141.94 0,56.08 -3.61,112.46 -7.46,174.03 -6.27,101.33 -12.81,205.22 -2.83,306.15 l 26.66,-3.07 c -9.77,-98.84 -3.32,-202.74 2.89,-303 3.87,-61.99 7.5,-120.71 7.5,-177.6 0,-49.93 2.36,-90.72 4.63,-137.09 2.23,-45.48 4.32,-85.14 4.32,-125.14" /><path
         id="path28"
         style="fill:#1b5065;fill-opacity:1;fill-rule:nonzero;stroke:none"
         d="m 4394.8,3211.3 h -270 v 40 h 270 v -40" /><path
         id="path30"
         style="fill:#1b5065;fill-opacity:1;fill-rule:nonzero;stroke:none"
         d="m 4370.66,2608.39 c -13.2,0 -30.25,2.3 -42.16,6.95 -82.23,32.05 -93.7,159.59 -93.7,174.03 v 491.93 h 50 v -491.06 c 0,-26.58 19.46,-108.72 61.43,-125.03 37.29,-14.51 103.58,21.15 181.08,100.1 l 39.76,-37.48 c -78.52,-80 -142.15,-119.44 -196.41,-119.44" /><path
         id="path32"
         style="fill:#1b5065;fill-opacity:1;fill-rule:nonzero;stroke:none"
         d="m 4685.37,2890.61 -92.67,-272.31 -40.63,119.07 -123.52,23.71 256.82,129.53" /><path
         id="path34"
         style="fill:#1b5065;fill-opacity:1;fill-rule:nonzero;stroke:none"
         d="m 4270.53,3396.87 c -29.49,0 -53.52,-24 -53.52,-53.53 0,-29.53 24.03,-53.53 53.52,-53.53 29.51,0 53.53,24 53.53,53.53 0,29.53 -24.02,53.53 -53.53,53.53 z m 0,-160.58 c -59.03,0 -107.03,48.04 -107.03,107.05 0,59.02 48,107.06 107.03,107.06 59.04,0 107.07,-48.04 107.07,-107.06 0,-59.01 -48.03,-107.05 -107.07,-107.05" /><path
         id="path36"
         style="fill:#1b5065;fill-opacity:1;fill-rule:nonzero;stroke:none"
         d="m 835.352,4191.88 c -5.411,0 -10.899,1.1 -16.172,3.4 -20.274,8.94 -29.492,32.64 -20.547,52.92 10.82,24.55 21.972,48.88 33.515,73 9.61,20.03 33.536,28.55 53.555,18.93 20,-9.57 28.477,-33.56 18.906,-53.53 -11.191,-23.42 -22.031,-46.99 -32.48,-70.75 -6.641,-15.03 -21.367,-23.97 -36.777,-23.97 z m -78.028,-199.34 c -4.336,0 -8.73,0.7 -13.066,2.2 -20.957,7.21 -32.09,30.05 -24.903,51.01 11.778,34.27 24.415,68.62 37.54,102.07 8.066,20.7 31.425,30.86 51.992,22.74 20.664,-8.05 30.859,-31.37 22.754,-52.02 -12.715,-32.41 -24.942,-65.71 -36.328,-98.89 -5.723,-16.65 -21.309,-27.11 -37.989,-27.11 z m -85.195,-309.45 c -2.754,0 -5.488,0.29 -8.262,0.87 -21.719,4.54 -35.625,25.82 -31.074,47.5 14.727,70.57 32.695,141.48 53.34,210.77 6.347,21.28 28.691,33.27 49.941,26.97 21.25,-6.32 33.34,-28.69 27.012,-49.92 -20.02,-67.14 -37.402,-135.85 -51.738,-204.25 -3.946,-18.93 -20.645,-31.94 -39.219,-31.94 z m -54.805,-531.54 c -22.168,0 -40.156,17.99 -40.156,40.15 0,145.11 11.973,290.74 35.566,432.87 3.653,21.9 24.2,36.67 46.192,33.04 21.855,-3.62 36.64,-24.31 33.008,-46.15 -22.871,-137.83 -34.473,-279.05 -34.473,-419.76 0,-22.16 -17.969,-40.15 -40.137,-40.15" /><path
         id="path38"
         style="fill:#1b5065;fill-opacity:1;fill-rule:nonzero;stroke:none"
         d="M 3200,578.672 C 1753.77,578.672 577.168,1751.3 577.168,3211.3 h 80.293 c 0,-1400 1140.589,-2552.339 2542.539,-2552.339 699.24,0 1351.02,273.121 1835.18,777.939 l 57.96,-53.12 C 4593.67,863.02 3921.33,578.672 3200,578.672" /><path
         id="path40"
         style="fill:#1b5065;fill-opacity:1;fill-rule:nonzero;stroke:none"
         d="m 4872.6,1494.13 379.06,128.63 -78.07,-392.61 z" /><path
         id="path42"
         style="fill:#1b5065;fill-opacity:1;fill-rule:nonzero;stroke:none"
         d="m 5747.73,2725.27 c -2.18,0 -4.39,0.16 -6.64,0.53 -21.85,3.63 -36.64,24.3 -33,46.17 22.83,137.7 34.45,278.91 34.45,419.73 0,22.17 17.97,40.15 40.14,40.15 22.16,0 40.15,-17.98 40.15,-40.15 0,-145.22 -11.95,-290.84 -35.54,-432.86 -3.27,-19.66 -20.3,-33.57 -39.56,-33.57 z m -72.28,-312.74 c -3.83,0 -7.68,0.52 -11.5,1.67 -21.25,6.33 -33.34,28.7 -27,49.95 20.02,67.14 37.39,135.83 51.72,204.25 4.51,21.69 25.98,35.57 47.48,31.05 21.72,-4.52 35.63,-25.8 31.08,-47.52 -14.73,-70.56 -32.7,-141.44 -53.34,-210.73 -5.2,-17.43 -21.18,-28.67 -38.44,-28.67 z m -69.71,-202.48 c -4.86,0 -9.8,0.89 -14.61,2.77 -20.64,8.07 -30.84,31.34 -22.79,51.98 12.91,33.01 25.14,66.28 36.35,98.96 7.24,20.96 30.08,32.09 51.05,24.9 20.96,-7.21 32.09,-30.05 24.9,-51.01 -11.6,-33.69 -24.21,-68.03 -37.5,-102.06 -6.19,-15.84 -21.36,-25.54 -37.4,-25.54 z m -68.98,-159.78 c -5.74,0 -11.55,1.23 -17.09,3.82 -20.04,9.46 -28.65,33.4 -19.18,53.45 9.35,19.89 18.49,39.88 27.38,60.04 8.95,20.28 32.6,29.48 52.93,20.54 20.27,-8.96 29.49,-32.67 20.51,-52.95 -9.14,-20.76 -18.54,-41.4 -28.22,-61.87 -6.84,-14.5 -21.27,-23.03 -36.33,-23.03" /><path
         id="path44"
         style="fill:#1b5065;fill-opacity:1;fill-rule:nonzero;stroke:none"
         d="m 5822.83,3211.3 h -80.29 c 0,1390 -1140.59,2532.74 -2542.54,2532.74 -698.34,0 -1349.49,-282.31 -1833.52,-785.99 l -57.91,53.21 c 499.3,519.58 1171.04,814.28 1891.43,814.28 1446.23,0 2622.83,-1174.24 2622.83,-2614.24" /><path
         id="path46"
         style="fill:#1b5065;fill-opacity:1;fill-rule:nonzero;stroke:none"
         d="m 1529,4890.87 -379.18,-128.27 78.46,392.57 z" /></g></g></svg>