<?xml version="1.0" encoding="UTF-8" standalone="no"?> <svg width="64" height="64" viewBox="0 0 64 64" fill="none" xmlns="http://www.w3.org/2000/svg">
<path d="M59.85 28.7199C54.29 17.4799 54 17.42 36 14.35C35.7348 14.3062 35.463 14.3696 35.2446 14.5262C35.0261 14.6828 34.8788 14.9197 34.835 15.185C34.7912 15.4502 34.8546 15.7219 35.0112 15.9404C35.1678 16.1589 35.4048 16.3062 35.67 16.35C52.94 19.35 52.94 19.3499 58.05 29.6299C59.17 31.9099 60.05 35.17 55.83 38.11C54.16 24.53 32.52 17.84 18.05 23.11C13.22 15.73 4.65 21.1899 7.5 29.4799C4.69756 32.1959 3.08039 35.9082 3 39.81C3 42.6 5.93 44.75 11.72 46.22C21.84 48.97 53.42 49.74 55.91 40.41C60.91 37.49 62.24 33.5599 59.85 28.7199Z" fill="#4D4D4D"/>
<path d="M10.8299 35.58C10.3287 35.58 9.84795 35.7791 9.49351 36.1335C9.13907 36.488 8.93994 36.9687 8.93994 37.47C8.93994 37.9712 9.13907 38.4519 9.49351 38.8064C9.84795 39.1608 10.3287 39.36 10.8299 39.36C11.3312 39.36 11.8119 39.1608 12.1664 38.8064C12.5208 38.4519 12.7199 37.9712 12.7199 37.47C12.7199 36.9687 12.5208 36.488 12.1664 36.1335C11.8119 35.7791 11.3312 35.58 10.8299 35.58Z" fill="black"/>
<path d="M35.84 47.6599H4C3.73478 47.6599 3.48043 47.7653 3.29289 47.9528C3.10536 48.1403 3 48.3947 3 48.6599C3 48.9251 3.10536 49.1795 3.29289 49.367C3.48043 49.5546 3.73478 49.6599 4 49.6599H35.84C36.1052 49.6599 36.3596 49.5546 36.5471 49.367C36.7346 49.1795 36.84 48.9251 36.84 48.6599C36.84 48.3947 36.7346 48.1403 36.5471 47.9528C36.3596 47.7653 36.1052 47.6599 35.84 47.6599Z" fill="black"/>
<path d="M41.69 47.6599H39.16C38.8948 47.6599 38.6405 47.7653 38.4529 47.9528C38.2654 48.1403 38.16 48.3947 38.16 48.6599C38.16 48.9251 38.2654 49.1795 38.4529 49.367C38.6405 49.5546 38.8948 49.6599 39.16 49.6599H41.69C41.9552 49.6599 42.2096 49.5546 42.3971 49.367C42.5847 49.1795 42.69 48.9251 42.69 48.6599C42.69 48.3947 42.5847 48.1403 42.3971 47.9528C42.2096 47.7653 41.9552 47.6599 41.69 47.6599Z" fill="black"/>
<path d="M55 47.6599H45.2C44.9347 47.6599 44.6804 47.7653 44.4928 47.9528C44.3053 48.1403 44.2 48.3947 44.2 48.6599C44.2 48.9251 44.3053 49.1795 44.4928 49.367C44.6804 49.5546 44.9347 49.6599 45.2 49.6599H55C55.2652 49.6599 55.5195 49.5546 55.7071 49.367C55.8946 49.1795 56 48.9251 56 48.6599C56 48.3947 55.8946 48.1403 55.7071 47.9528C55.5195 47.7653 55.2652 47.6599 55 47.6599Z" fill="black"/>
<path d="M10.39 33.7199C10.5997 33.8603 10.8547 33.9162 11.1039 33.8765C11.353 33.8368 11.578 33.7043 11.7336 33.5057C11.8892 33.307 11.964 33.0569 11.9429 32.8055C11.9219 32.5541 11.8065 32.3199 11.62 32.1499C10.4945 31.2137 9.67867 29.9586 9.28005 28.5499C7.97005 24.4399 10.63 20.1699 14.28 22.1299C16.71 23.3799 18.21 27.2299 17.46 29.9499C17.4077 30.2031 17.4555 30.4667 17.5933 30.6854C17.7311 30.9041 17.9482 31.0609 18.1992 31.123C18.4501 31.1851 18.7154 31.1476 18.9392 31.0184C19.1631 30.8892 19.3283 30.6783 19.4 30.4299C20.4 26.8399 18.46 22.0299 15.24 20.3699C9.93005 17.5499 5.58005 23.3699 7.41005 29.1199C7.90764 30.9228 8.94807 32.5288 10.39 33.7199V33.7199Z" fill="black"/>
</svg>
